<svg version="1.1" id="Layer_1" xmlns="http://www.w3.org/2000/svg" xmlns:xlink="http://www.w3.org/1999/xlink" x="0px" y="0px"
	 width="100%" viewBox="0 0 206 237" enable-background="new 0 0 206 237" xml:space="preserve">
<path fill="#000000" opacity="1.000000" stroke="none" 
	d="
M1.000000,94.000000 
	C1.000000,62.666672 1.000000,31.833344 1.000000,1.000012 
	C69.666649,1.000008 138.333298,1.000008 206.999954,1.000004 
	C206.999969,79.999969 206.999969,158.999939 206.999985,237.999939 
	C138.333374,237.999954 69.666756,237.999954 1.000066,237.999969 
	C1.000000,190.166672 1.000000,142.333328 1.000000,94.000000 
M140.912140,31.456581 
	C140.623077,31.291363 140.334015,31.126144 140.009369,30.983109 
	C140.009369,30.983109 140.026276,30.944515 139.905640,30.453300 
	C139.622025,30.296906 139.338425,30.140511 139.043686,29.954870 
	C139.043686,29.954870 139.014099,29.944731 138.895325,29.459749 
	C138.704224,29.146198 138.425064,28.988449 138.056381,28.937660 
	C138.056381,28.937660 138.007889,28.931747 137.792542,28.307310 
	C136.219070,27.207272 134.645584,26.107231 133.068115,24.929663 
	C133.068115,24.929663 132.990494,24.927761 132.887527,24.443748 
	C132.682129,24.082066 132.397842,24.002615 131.549561,24.038227 
	C131.382935,23.999645 131.216309,23.961063 130.910522,23.423553 
	C130.610443,23.345240 130.310364,23.266924 129.542130,23.044474 
	C129.542130,23.044474 129.060699,22.954065 128.899719,22.467134 
	C128.603485,22.380018 128.307251,22.292902 127.190163,22.047285 
	C126.220818,21.925459 125.195068,21.967640 124.290802,21.656612 
	C114.466042,18.277328 104.543602,17.555437 94.671799,21.122606 
	C91.889458,22.128002 89.521782,24.280941 86.338707,25.999784 
	C85.864403,26.315937 85.390106,26.632092 84.983871,26.982050 
	C84.983871,26.982050 84.950447,26.913799 84.236458,27.002296 
	C81.676704,28.983355 78.651344,30.579359 76.638786,33.012939 
	C68.455727,42.907864 64.990540,54.592686 65.064232,67.289986 
	C65.121552,77.167702 65.618294,87.042862 65.433853,97.072289 
	C65.263580,97.355141 65.093307,97.637993 64.151123,97.998032 
	C62.080162,98.641342 60.009201,99.284660 57.212578,100.017204 
	C50.206100,102.864517 44.553898,107.353027 42.247589,114.705841 
	C40.825203,119.240601 40.642677,124.164246 39.166683,129.392410 
	C39.120747,149.266159 39.060581,169.139908 39.069641,189.013641 
	C39.070107,190.039337 39.662766,191.064758 40.022125,192.507874 
	C40.022125,192.507874 40.167252,192.901688 40.021999,193.819534 
	C40.003849,198.795486 39.362335,203.903305 43.060600,208.807648 
	C46.353065,212.192459 49.645531,215.577271 52.939610,219.060379 
	C52.939610,219.060379 53.037868,219.063934 53.289749,219.679062 
	C54.508530,220.109238 55.727314,220.539413 56.948853,221.053864 
	C56.948853,221.053864 57.033154,221.055588 57.229076,221.626526 
	C57.805645,221.672760 58.382210,221.719009 59.689804,222.126511 
	C62.006130,222.734177 64.315346,223.831131 66.640015,223.864899 
	C76.763023,224.011978 86.890533,223.849762 97.716179,223.968979 
	C98.804718,224.251480 99.893257,224.533997 101.917999,224.913727 
	C109.975746,224.537415 118.033501,224.161102 126.997696,223.945694 
	C134.487106,223.946091 141.976578,223.967667 149.465897,223.942581 
	C166.408005,223.885788 179.618134,213.478821 180.936279,194.080246 
	C180.603470,170.183975 180.480469,146.281830 179.809387,122.395058 
	C179.609283,115.272903 176.097244,109.202583 169.898468,104.465843 
	C169.613983,104.296906 169.329498,104.127968 168.773178,103.316719 
	C166.522278,102.200218 164.271378,101.083710 161.634811,99.272003 
	C159.775299,99.158890 157.915802,99.045769 155.911713,98.485710 
	C155.740906,98.181007 155.481049,98.035797 154.735657,97.280960 
	C154.482254,95.708618 153.981644,94.130836 154.016113,92.564827 
	C154.218414,83.375397 154.545700,74.188713 154.674484,64.191063 
	C153.417709,55.372654 152.793823,46.356083 146.892120,38.498848 
	C146.604599,38.314388 146.317078,38.129929 146.008102,38.002724 
	C146.008102,38.002724 146.047668,37.955322 145.968521,37.280266 
	C144.662827,35.840084 143.357117,34.399899 141.998459,32.985931 
	C141.998459,32.985931 142.053253,32.973457 141.911987,32.463531 
	C141.617249,32.291607 141.322525,32.119686 141.015564,32.004684 
	C141.015564,32.004684 141.049194,31.956173 140.912140,31.456581 
z"/>
<path fill="#FD9D14" opacity="1.000000" stroke="none" 
	d="
M100.981796,224.816513 
	C99.893257,224.533997 98.804718,224.251480 97.189354,223.543777 
	C91.135056,222.744720 85.606331,222.071243 80.080505,222.094177 
	C75.852348,222.111710 73.552452,220.006882 70.971870,216.087204 
	C74.445473,215.464737 77.238358,214.964233 80.224792,214.429062 
	C79.558655,212.991516 78.983208,211.749680 78.470535,210.643311 
	C85.794487,205.151840 93.385460,200.454865 96.652557,191.468674 
	C97.062508,190.341110 99.512085,189.804016 101.114777,189.314865 
	C102.163483,188.994781 103.389137,189.254456 105.604546,189.254456 
	C103.667854,187.481323 102.616043,186.518341 101.564240,185.555359 
	C105.534920,184.654587 109.202347,184.707779 112.845940,185.030273 
	C116.686523,185.370193 118.532379,183.950851 118.242935,179.851166 
	C118.991463,179.487167 119.488541,179.240448 120.269043,178.918747 
	C122.447380,175.700027 125.417435,172.745728 126.011688,169.372849 
	C127.220406,162.512405 132.520035,159.425903 136.605682,155.001999 
	C140.206696,151.102859 142.902863,146.368057 146.203171,141.800201 
	C146.939026,141.397934 147.470322,141.197754 148.343567,140.930328 
	C152.174652,138.456207 155.906769,136.331421 159.099976,133.580978 
	C164.902344,128.583145 170.384323,123.213348 176.260406,118.265968 
	C177.017975,120.082878 177.863327,121.612610 177.953644,123.185692 
	C178.408966,131.116165 178.667511,139.057922 178.606995,147.001251 
	C175.154755,148.998062 171.822266,150.678482 169.081528,153.044418 
	C163.100128,158.207870 157.193161,163.498230 151.668808,169.141068 
	C143.148834,177.843781 135.112167,187.019119 126.608551,195.738525 
	C120.493599,202.008636 113.698486,207.624725 107.710503,214.005280 
	C104.861923,217.040604 103.187889,221.178223 100.981796,224.816513 
z"/>
<path fill="#FD9414" opacity="1.000000" stroke="none" 
	d="
M101.449890,224.865112 
	C103.187889,221.178223 104.861923,217.040604 107.710503,214.005280 
	C113.698486,207.624725 120.493599,202.008636 126.608551,195.738525 
	C135.112167,187.019119 143.148834,177.843781 151.668808,169.141068 
	C157.193161,163.498230 163.100128,158.207870 169.081528,153.044418 
	C171.822266,150.678482 175.154755,148.998062 178.608734,147.466034 
	C179.298309,159.616104 179.598022,171.306900 179.563660,182.849365 
	C178.815933,181.512756 178.470993,180.294830 177.973404,179.142838 
	C177.113617,177.152298 176.159073,175.202698 175.244278,173.235916 
	C173.296860,174.569748 171.144958,175.687714 169.452637,177.290833 
	C167.225983,179.400116 165.440033,181.966339 163.318497,184.197144 
	C161.053223,186.579102 158.643478,188.826416 156.251862,191.084915 
	C149.678452,197.292389 143.324997,203.764465 136.416138,209.574921 
	C130.981232,214.145752 130.014511,215.590576 131.742523,222.217239 
	C129.671875,222.884171 127.881561,223.334473 126.091248,223.784790 
	C118.033501,224.161102 109.975746,224.537415 101.449890,224.865112 
z"/>
<path fill="#FBC935" opacity="1.000000" stroke="none" 
	d="
M131.049683,23.922482 
	C131.216309,23.961063 131.382935,23.999645 131.920319,24.279968 
	C132.489517,24.716825 132.722656,24.852177 132.990494,24.927761 
	C132.990494,24.927761 133.068115,24.929663 133.073792,25.329800 
	C134.722290,26.797207 136.365082,27.864477 138.007889,28.931747 
	C138.007889,28.931747 138.056381,28.937660 138.174927,29.159964 
	C138.487061,29.629492 138.727264,29.816980 139.014099,29.944731 
	C139.014099,29.944731 139.043686,29.954870 139.169876,30.167822 
	C139.493729,30.627935 139.737122,30.815849 140.026276,30.944515 
	C140.026276,30.944515 140.009369,30.983109 140.006821,31.234818 
	C140.006180,31.662382 140.008072,31.838240 139.992188,32.375217 
	C139.985046,34.832695 139.995712,36.929047 139.801086,39.221741 
	C139.070679,39.616051 138.545563,39.814026 137.659866,40.040466 
	C133.269592,41.252224 136.046967,43.943748 135.657761,45.909286 
	C131.200195,43.562382 127.068733,41.312096 122.705185,39.010948 
	C122.473091,38.960087 122.026390,38.798023 121.887085,38.484482 
	C120.478447,37.795441 119.209122,37.419933 117.705582,37.000008 
	C117.471367,36.955585 117.022179,36.795731 116.933525,36.557594 
	C115.872932,36.226097 114.901001,36.132732 113.698730,35.999832 
	C113.468391,35.960289 113.027122,35.806183 112.893776,35.500084 
	C110.838631,35.402489 108.916840,35.610989 106.766251,35.897545 
	C106.537468,35.975601 106.061760,36.061848 105.738190,36.046738 
	C104.612221,36.288235 103.809807,36.544838 102.773361,36.878113 
	C102.539322,36.954777 102.054054,37.039204 101.741776,37.009651 
	C99.338074,36.310036 97.125320,35.380276 97.031586,39.019958 
	C97.013069,39.013901 97.020355,39.052132 96.648361,39.050781 
	C94.866295,40.366444 93.456230,41.683464 92.035614,43.013020 
	C92.025070,43.025558 91.999916,43.046543 91.805023,43.164040 
	C91.366821,43.473988 91.183075,43.712353 91.050209,44.017372 
	C91.041527,44.038113 91.001793,44.059155 90.806915,44.177551 
	C90.369339,44.490250 90.185890,44.729908 90.049301,45.029930 
	C90.036911,45.044937 90.007576,45.070515 89.649376,45.072094 
	C87.862457,47.050629 86.433746,49.027588 85.000694,51.350452 
	C85.004059,52.158054 85.011757,52.619747 84.983292,53.304237 
	C84.947136,53.527031 84.789124,53.949894 84.474274,54.147320 
	C83.442101,56.235775 82.143295,58.114769 82.103867,60.019833 
	C81.883217,70.679970 81.966805,81.346413 81.616074,91.879639 
	C80.221397,89.132973 79.157120,86.517357 77.514198,82.479637 
	C76.603424,89.127563 74.666405,93.393364 67.851990,90.647125 
	C67.480751,88.987373 67.051346,87.685646 67.092979,86.399170 
	C67.333534,78.967369 67.893791,71.540848 67.953972,64.109375 
	C68.063591,50.574329 73.001480,39.320747 83.018707,30.225294 
	C83.920998,29.406027 84.318512,28.030823 84.950447,26.913799 
	C84.950447,26.913799 84.983871,26.982050 85.245453,26.923626 
	C85.992668,26.545984 86.478287,26.226765 86.963913,25.907545 
	C89.521782,24.280941 91.889458,22.128002 94.671799,21.122606 
	C104.543602,17.555437 114.466042,18.277328 124.290802,21.656612 
	C125.195068,21.967640 126.220818,21.925459 127.748825,22.286924 
	C128.525543,22.727245 128.776611,22.869747 129.060699,22.954065 
	C129.060699,22.954065 129.542130,23.044474 129.921860,23.276375 
	C130.516037,23.709421 130.765396,23.847488 131.049683,23.922482 
M127.527573,38.502151 
	C127.527573,38.502151 127.486740,38.517818 127.527573,38.502151 
z"/>
<path fill="#FDB323" opacity="1.000000" stroke="none" 
	d="
M40.167252,192.901688 
	C40.167252,192.901688 40.022125,192.507874 40.205486,191.997070 
	C40.303337,188.328674 40.217823,185.171066 40.516693,182.009125 
	C43.228775,180.729538 45.851833,179.790527 47.798065,178.080978 
	C49.612602,176.487106 50.447235,173.820496 52.160320,172.061539 
	C65.546051,158.317352 78.959862,144.598389 92.530258,131.037018 
	C100.503136,123.069427 108.726517,115.349274 116.940872,107.628098 
	C120.491783,104.290390 124.304451,101.231163 128.414307,98.028030 
	C130.892807,97.640182 132.955231,97.269737 135.015656,96.938095 
	C135.013657,96.976898 134.936386,96.968651 135.273102,96.970078 
	C136.414825,96.648819 137.219818,96.326126 138.395630,95.908401 
	C139.489548,94.802139 140.676331,93.866982 140.856842,92.766739 
	C141.712799,87.549042 141.973419,82.217384 143.080795,77.062668 
	C143.884918,73.319626 145.680008,69.789474 147.033264,66.164406 
	C147.789291,66.308723 148.545319,66.453041 149.301346,66.597359 
	C149.534195,68.735558 149.644928,70.895988 150.029083,73.006653 
	C150.578308,76.024330 151.327530,79.005623 151.738525,82.067871 
	C151.652695,82.754158 151.819717,83.375038 151.988312,84.397049 
	C151.980804,85.867821 151.971710,86.937447 151.621033,88.081238 
	C149.857956,90.425713 148.363983,92.654930 147.044861,94.983238 
	C146.360352,96.191429 146.365601,98.066910 145.412170,98.804092 
	C134.116928,107.537689 122.082092,115.399864 113.414566,127.131554 
	C112.664337,128.147018 110.864471,128.340607 109.645500,129.071609 
	C108.759056,129.603210 107.289673,130.461578 107.345955,131.054016 
	C107.692413,134.701233 108.398743,138.314255 108.640732,141.939697 
	C107.200615,141.632736 106.105125,141.324722 104.942413,140.678131 
	C103.746025,139.072220 102.616859,137.804886 101.487686,136.537552 
	C100.479927,138.057297 99.424583,139.548645 98.490639,141.112473 
	C98.170593,141.648392 98.154495,142.365845 97.698524,142.823273 
	C94.827614,140.592957 93.155190,140.827560 90.928741,143.729538 
	C87.786522,147.825134 83.808182,151.299408 80.052338,154.898468 
	C76.186760,158.602676 71.967514,161.952026 68.246651,165.789795 
	C62.432045,171.787125 57.343605,178.561783 51.104042,184.047775 
	C47.013996,187.643860 45.331821,190.956970 46.830177,196.289551 
	C45.121643,197.721039 43.583519,198.861740 42.046089,199.631287 
	C42.164299,196.920715 44.219624,194.008484 40.167252,192.901688 
z"/>
<path fill="#FCA41B" opacity="1.000000" stroke="none" 
	d="
M117.991478,179.968460 
	C118.532379,183.950851 116.686523,185.370193 112.845940,185.030273 
	C109.202347,184.707779 105.534920,184.654587 101.564240,185.555359 
	C102.616043,186.518341 103.667854,187.481323 105.604546,189.254456 
	C103.389137,189.254456 102.163483,188.994781 101.114777,189.314865 
	C99.512085,189.804016 97.062508,190.341110 96.652557,191.468674 
	C93.385460,200.454865 85.794487,205.151840 78.470535,210.643311 
	C78.983208,211.749680 79.558655,212.991516 80.224792,214.429062 
	C77.238358,214.964233 74.445473,215.464737 70.971870,216.087204 
	C73.552452,220.006882 75.852348,222.111710 80.080505,222.094177 
	C85.606331,222.071243 91.135056,222.744720 96.839462,223.459229 
	C86.890533,223.849762 76.763023,224.011978 66.640015,223.864899 
	C64.315346,223.831131 62.006130,222.734177 59.117718,221.782196 
	C58.041473,221.310440 57.537315,221.183014 57.033154,221.055588 
	C57.033154,221.055588 56.948853,221.053864 56.844036,220.686523 
	C55.505436,219.900787 54.271652,219.482361 53.037868,219.063934 
	C53.037868,219.063934 52.939610,219.060379 52.958511,218.641235 
	C52.985638,217.480682 52.993862,216.739288 53.300369,215.823120 
	C63.795902,211.631317 68.857559,201.713135 76.922310,195.190384 
	C83.022980,190.256119 87.825867,183.745026 93.499062,178.237213 
	C95.155212,176.629333 97.816216,176.056503 100.019745,175.426605 
	C99.742584,178.794281 101.023010,180.168106 104.040009,180.007675 
	C106.024895,179.902115 108.020668,180.001343 110.080338,180.343109 
	C110.924698,181.343994 111.700279,182.010651 112.475861,182.677307 
	C112.976784,181.803772 113.477715,180.930252 114.379959,180.043640 
	C115.851349,180.009872 116.921410,179.989166 117.991478,179.968460 
z"/>
<path fill="#FBAE21" opacity="1.000000" stroke="none" 
	d="
M53.002090,215.997894 
	C52.993862,216.739288 52.985638,217.480682 52.957703,218.592072 
	C49.645531,215.577271 46.353065,212.192459 43.144825,208.139236 
	C42.834499,204.981369 42.439949,202.491898 42.045395,200.002441 
	C43.583519,198.861740 45.121643,197.721039 47.210670,196.285690 
	C49.517769,194.973755 51.491390,194.198273 52.968304,192.870346 
	C54.411621,191.572647 55.143642,189.503433 56.539368,188.130096 
	C67.958405,176.894150 79.451714,165.733612 90.943672,154.571991 
	C92.910965,152.661240 94.979195,150.854401 97.131973,149.225983 
	C98.163528,149.644180 99.063919,149.835953 99.965820,150.376282 
	C100.229752,151.824112 100.492172,152.923386 100.824692,154.330200 
	C100.926292,155.055939 100.957802,155.474152 100.780327,155.938904 
	C100.681435,156.664047 100.791527,157.342667 100.546036,158.097992 
	C98.663109,158.769333 97.059242,159.221146 95.625084,159.989670 
	C93.005440,161.393433 90.110901,162.584641 87.993965,164.571030 
	C81.030510,171.105042 74.311455,177.903625 67.599861,184.700638 
	C62.017406,190.354141 56.393829,195.986511 51.144375,201.941971 
	C48.025841,205.479919 48.302460,212.024368 51.116405,215.555710 
	C51.432339,215.952225 52.358768,215.862259 53.002090,215.997894 
z"/>
<path fill="#F7890F" opacity="1.000000" stroke="none" 
	d="
M126.544472,223.865234 
	C127.881561,223.334473 129.671875,222.884171 132.204056,222.217545 
	C137.882736,221.670166 142.825912,221.407944 147.751068,220.951172 
	C148.761215,220.857483 150.024139,220.282532 150.622177,219.506683 
	C153.219879,216.136749 155.614716,212.610397 158.083282,209.140900 
	C158.328705,209.735397 158.574142,210.329880 158.819565,210.924377 
	C160.647202,211.216461 163.822342,212.180862 164.069931,211.684601 
	C165.159561,209.500732 165.417419,206.898132 165.950653,204.441635 
	C166.333588,202.677475 166.077835,200.170197 167.160614,199.289001 
	C169.374512,197.487213 172.297974,196.557297 175.624237,194.927841 
	C176.343353,193.879807 177.674423,191.939896 179.130814,190.183365 
	C179.442474,190.599609 179.663040,190.793564 179.819153,191.226639 
	C180.070755,192.672089 180.421066,193.839493 180.771362,195.006897 
	C179.618134,213.478821 166.408005,223.885788 149.465897,223.942581 
	C141.976578,223.967667 134.487106,223.946091 126.544472,223.865234 
z"/>
<path fill="#F7BB2E" opacity="1.000000" stroke="none" 
	d="
M140.006363,39.025398 
	C139.995712,36.929047 139.985046,34.832695 140.252045,32.367088 
	C140.702881,31.983952 140.876038,31.970062 141.049194,31.956173 
	C141.049194,31.956173 141.015564,32.004684 141.156204,32.181423 
	C141.506882,32.615002 141.759018,32.820103 142.053253,32.973457 
	C142.053253,32.973457 141.998459,32.985931 142.013779,33.360588 
	C141.910126,36.530796 143.095718,38.084072 146.047668,37.955322 
	C146.047668,37.955322 146.008102,38.002724 146.114929,38.174660 
	C146.372375,38.605995 146.563217,38.831341 146.794250,39.022640 
	C152.793823,46.356083 153.417709,55.372654 154.377808,64.547501 
	C152.951340,62.437744 151.821548,59.971542 150.793900,57.728287 
	C146.022095,59.893089 142.390152,63.142181 140.888580,68.470215 
	C140.597580,69.502747 139.027191,70.174713 138.034546,70.544861 
	C137.858322,62.657753 137.730453,55.237503 137.465485,47.822159 
	C137.443237,47.199894 136.499481,46.610554 135.983856,46.005913 
	C136.046967,43.943748 133.269592,41.252224 137.720154,40.359146 
	C139.186279,41.041168 140.231552,41.432980 141.276825,41.824783 
	C140.853348,40.891655 140.429855,39.958527 140.006363,39.025398 
z"/>
<path fill="#F9B52A" opacity="1.000000" stroke="none" 
	d="
M138.046967,71.013000 
	C139.027191,70.174713 140.597580,69.502747 140.888580,68.470215 
	C142.390152,63.142181 146.022095,59.893089 150.793900,57.728287 
	C151.821548,59.971542 152.951340,62.437744 154.455978,64.952530 
	C154.545700,74.188713 154.218414,83.375397 154.016113,92.564827 
	C153.981644,94.130836 154.482254,95.708618 154.903290,97.894478 
	C155.070908,98.507996 155.033691,98.970215 154.657471,98.890350 
	C149.996017,95.963165 152.857132,91.582108 151.962616,88.007080 
	C151.971710,86.937447 151.980804,85.867821 151.991043,84.064865 
	C151.991913,82.888519 151.991638,82.445488 151.991348,82.002457 
	C151.327530,79.005623 150.578308,76.024330 150.029083,73.006653 
	C149.644928,70.895988 149.534195,68.735558 149.301346,66.597359 
	C148.545319,66.453041 147.789291,66.308723 147.033264,66.164406 
	C145.680008,69.789474 143.884918,73.319626 143.080795,77.062668 
	C141.973419,82.217384 141.712799,87.549042 140.856842,92.766739 
	C140.676331,93.866982 139.489548,94.802139 138.128723,95.889084 
	C137.313354,95.950455 137.135712,95.936096 136.975647,95.619110 
	C136.981461,94.912636 136.969696,94.508789 137.195801,93.756180 
	C137.638107,85.942612 137.842529,78.477806 138.046967,71.013000 
z"/>
<path fill="#F4C83D" opacity="1.000000" stroke="none" 
	d="
M84.593452,26.958046 
	C84.318512,28.030823 83.920998,29.406027 83.018707,30.225294 
	C73.001480,39.320747 68.063591,50.574329 67.953972,64.109375 
	C67.893791,71.540848 67.333534,78.967369 67.092979,86.399170 
	C67.051346,87.685646 67.480751,88.987373 67.918312,91.019165 
	C68.425941,93.500748 68.707825,95.245216 68.624451,96.996857 
	C67.528854,97.041573 66.798523,97.079109 66.034042,97.065041 
	C65.999901,97.013435 65.919746,96.919159 65.919746,96.919159 
	C65.618294,87.042862 65.121552,77.167702 65.064232,67.289986 
	C64.990540,54.592686 68.455727,42.907864 76.638786,33.012939 
	C78.651344,30.579359 81.676704,28.983355 84.593452,26.958046 
z"/>
<path fill="#F9A21B" opacity="1.000000" stroke="none" 
	d="
M180.853821,194.543579 
	C180.421066,193.839493 180.070755,192.672089 179.824524,190.986023 
	C179.928604,190.467346 179.892288,189.985718 179.912659,189.549744 
	C179.921265,187.075089 179.909500,185.036392 179.897736,182.997696 
	C179.598022,171.306900 179.298309,159.616104 178.996857,147.460510 
	C178.667511,139.057922 178.408966,131.116165 177.953644,123.185692 
	C177.863327,121.612610 177.017975,120.082878 176.255447,117.881683 
	C176.093796,114.471001 174.887527,112.944214 171.939423,112.660980 
	C171.176788,109.943626 170.479767,107.559761 169.847351,105.122711 
	C169.911972,105.069519 170.037613,104.958946 170.037613,104.958946 
	C176.097244,109.202583 179.609283,115.272903 179.809387,122.395058 
	C180.480469,146.281830 180.603470,170.183975 180.853821,194.543579 
z"/>
<path fill="#F4C83D" opacity="1.000000" stroke="none" 
	d="
M39.903496,128.913300 
	C40.642677,124.164246 40.825203,119.240601 42.247589,114.705841 
	C44.553898,107.353027 50.206100,102.864517 57.631767,100.040703 
	C58.050961,100.064201 58.164097,100.200081 58.018257,100.497543 
	C54.967243,103.748543 52.489101,107.427826 49.040157,109.457214 
	C45.386688,111.606941 43.878269,114.083420 43.804913,118.326477 
	C43.074520,120.519531 42.581573,122.402679 41.991154,124.254745 
	C41.474121,125.876579 40.847580,127.463509 40.182968,129.015656 
	C40.096519,128.965439 39.903496,128.913300 39.903496,128.913300 
z"/>
<path fill="#EAB940" opacity="1.000000" stroke="none" 
	d="
M40.132309,182.013458 
	C40.217823,185.171066 40.303337,188.328674 40.184280,191.788300 
	C39.662766,191.064758 39.070107,190.039337 39.069641,189.013641 
	C39.060581,169.139908 39.120747,149.266159 39.535088,129.152863 
	C39.903496,128.913300 40.096519,128.965439 40.111465,129.477234 
	C40.109669,137.661606 40.092926,145.334183 40.061020,153.460587 
	C40.079521,156.951035 40.113190,159.987686 40.123634,163.490479 
	C40.111046,169.975571 40.121677,175.994507 40.132309,182.013458 
z"/>
<path fill="#E7B43F" opacity="1.000000" stroke="none" 
	d="
M42.046089,199.631287 
	C42.439949,202.491898 42.834499,204.981369 43.135689,207.783875 
	C39.362335,203.903305 40.003849,198.795486 40.094627,193.360611 
	C44.219624,194.008484 42.164299,196.920715 42.046089,199.631287 
z"/>
<path fill="#F9A21B" opacity="1.000000" stroke="none" 
	d="
M162.020477,99.967209 
	C164.271378,101.083710 166.522278,102.200218 168.852982,103.695892 
	C168.932785,104.075066 168.823196,104.193573 168.457840,104.136124 
	C166.002151,102.793251 163.911835,101.507828 161.871552,100.158844 
	C161.921585,100.095276 162.020477,99.967209 162.020477,99.967209 
z"/>
<path fill="#F3C13A" opacity="1.000000" stroke="none" 
	d="
M146.008087,37.617794 
	C143.095718,38.084072 141.910126,36.530796 142.040253,33.347481 
	C143.357117,34.399899 144.662827,35.840084 146.008087,37.617794 
z"/>
<path fill="#F4C83D" opacity="1.000000" stroke="none" 
	d="
M57.994598,99.996094 
	C60.009201,99.284660 62.080162,98.641342 64.570747,97.992706 
	C64.990372,97.987381 65.061737,98.049576 64.915573,98.393051 
	C62.567638,99.224388 60.365868,99.712234 58.164097,100.200081 
	C58.164097,100.200081 58.050961,100.064201 57.994598,99.996094 
z"/>
<path fill="#F3C13A" opacity="1.000000" stroke="none" 
	d="
M137.900208,28.619530 
	C136.365082,27.864477 134.722290,26.797207 133.075806,25.368565 
	C134.645584,26.107231 136.219070,27.207272 137.900208,28.619530 
z"/>
<path fill="#F9A21B" opacity="1.000000" stroke="none" 
	d="
M156.056290,98.932648 
	C157.915802,99.045769 159.775299,99.158890 161.827637,99.619606 
	C162.020477,99.967209 161.921585,100.095276 161.577576,100.145760 
	C159.490036,100.463516 157.746521,100.730782 155.988754,100.691116 
	C155.922791,99.978867 155.871078,99.573563 155.878906,99.109650 
	C155.938431,99.051048 156.056290,98.932648 156.056290,98.932648 
z"/>
<path fill="#FBAE21" opacity="1.000000" stroke="none" 
	d="
M53.163811,219.371490 
	C54.271652,219.482361 55.505436,219.900787 56.842659,220.644394 
	C55.727314,220.539413 54.508530,220.109238 53.163811,219.371490 
z"/>
<path fill="#FBAE21" opacity="1.000000" stroke="none" 
	d="
M57.131115,221.341064 
	C57.537315,221.183014 58.041473,221.310440 58.752205,221.601562 
	C58.382210,221.719009 57.805645,221.672760 57.131115,221.341064 
z"/>
<path fill="#F4C83D" opacity="1.000000" stroke="none" 
	d="
M86.651306,25.953663 
	C86.478287,26.226765 85.992668,26.545984 85.211426,26.906725 
	C85.390106,26.632092 85.864403,26.315937 86.651306,25.953663 
z"/>
<path fill="#F3C13A" opacity="1.000000" stroke="none" 
	d="
M139.965958,30.698908 
	C139.737122,30.815849 139.493729,30.627935 139.175446,30.182446 
	C139.338425,30.140511 139.622025,30.296906 139.965958,30.698908 
z"/>
<path fill="#F3C13A" opacity="1.000000" stroke="none" 
	d="
M141.982620,32.718494 
	C141.759018,32.820103 141.506882,32.615002 141.162323,32.152962 
	C141.322525,32.119686 141.617249,32.291607 141.982620,32.718494 
z"/>
<path fill="#F3C13A" opacity="1.000000" stroke="none" 
	d="
M146.843185,38.760742 
	C146.563217,38.831341 146.372375,38.605995 146.125641,38.146034 
	C146.317078,38.129929 146.604599,38.314388 146.843185,38.760742 
z"/>
<path fill="#F3C13A" opacity="1.000000" stroke="none" 
	d="
M128.980209,22.710600 
	C128.776611,22.869747 128.525543,22.727245 128.159241,22.366175 
	C128.307251,22.292902 128.603485,22.380018 128.980209,22.710600 
z"/>
<path fill="#F3C13A" opacity="1.000000" stroke="none" 
	d="
M130.980103,23.673018 
	C130.765396,23.847488 130.516037,23.709421 130.155945,23.348442 
	C130.310364,23.266924 130.610443,23.345240 130.980103,23.673018 
z"/>
<path fill="#F3C13A" opacity="1.000000" stroke="none" 
	d="
M140.980667,31.706377 
	C140.876038,31.970062 140.702881,31.983952 140.269836,32.005966 
	C140.008072,31.838240 140.006180,31.662382 140.024612,31.223724 
	C140.334015,31.126144 140.623077,31.291363 140.980667,31.706377 
z"/>
<path fill="#F3C13A" opacity="1.000000" stroke="none" 
	d="
M132.939011,24.685755 
	C132.722656,24.852177 132.489517,24.716825 132.162872,24.363552 
	C132.397842,24.002615 132.682129,24.082066 132.939011,24.685755 
z"/>
<path fill="#F4C83D" opacity="1.000000" stroke="none" 
	d="
M64.956696,97.954117 
	C65.093307,97.637993 65.263580,97.355141 65.676804,96.995728 
	C65.919746,96.919159 65.999901,97.013435 65.889496,97.244003 
	C65.571281,97.705284 65.332161,97.896957 65.061737,98.049576 
	C65.061737,98.049576 64.990372,97.987381 64.956696,97.954117 
z"/>
<path fill="#F3C13A" opacity="1.000000" stroke="none" 
	d="
M138.954712,29.702240 
	C138.727264,29.816980 138.487061,29.629492 138.175659,29.184383 
	C138.425064,28.988449 138.704224,29.146198 138.954712,29.702240 
z"/>
<path fill="#F9A21B" opacity="1.000000" stroke="none" 
	d="
M155.033691,98.970215 
	C155.033691,98.970215 155.070908,98.507996 155.101532,98.279045 
	C155.481049,98.035797 155.740906,98.181007 155.984009,98.709183 
	C156.056290,98.932648 155.938431,99.051048 155.684357,99.054169 
	C155.430267,99.057289 155.033691,98.970215 155.033691,98.970215 
z"/>
<path fill="#F9A21B" opacity="1.000000" stroke="none" 
	d="
M168.988892,104.017044 
	C169.329498,104.127968 169.613983,104.296906 169.968048,104.712395 
	C170.037613,104.958946 169.911972,105.069519 169.653381,105.062485 
	C169.394775,105.055458 168.995804,104.967171 168.960693,104.772118 
	C168.925583,104.577065 168.823196,104.193573 168.823196,104.193573 
	C168.823196,104.193573 168.932785,104.075066 168.988892,104.017044 
z"/>
<path fill="#FEA619" opacity="1.000000" stroke="none" 
	d="
M168.995804,104.967171 
	C168.995804,104.967171 169.394775,105.055458 169.588745,105.115677 
	C170.479767,107.559761 171.176788,109.943626 171.650360,112.833443 
	C170.240952,114.476532 168.955734,115.528008 167.886932,116.766281 
	C164.178360,121.062935 160.458649,125.355270 156.909515,129.782608 
	C153.924042,133.506790 148.783463,135.530151 148.001602,140.997559 
	C147.470322,141.197754 146.939026,141.397934 145.915771,141.970413 
	C141.303146,147.110596 134.357452,148.708206 131.607346,155.272964 
	C130.835175,157.116211 127.277702,157.792633 124.665253,159.003693 
	C123.889275,159.003494 123.445854,159.003876 123.001579,158.753204 
	C123.000175,158.334763 122.999626,158.167374 123.184113,157.723511 
	C123.246300,155.298004 123.123451,153.149002 123.139305,150.686630 
	C123.497971,148.782715 123.161758,146.730011 124.033432,145.681000 
	C127.969131,140.944672 131.902588,136.108353 136.470566,132.015320 
	C146.971848,122.605934 155.276901,110.508255 168.995804,104.967171 
z"/>
<path fill="#FBA319" opacity="1.000000" stroke="none" 
	d="
M122.999084,158.000000 
	C122.999626,158.167374 123.000175,158.334763 123.006683,159.110489 
	C123.363235,160.747101 123.713821,161.775345 124.064407,162.803604 
	C124.478119,162.708710 124.891838,162.613831 125.305557,162.518936 
	C125.202980,161.347382 125.100403,160.175827 124.997826,159.004272 
	C127.277702,157.792633 130.835175,157.116211 131.607346,155.272964 
	C134.357452,148.708206 141.303146,147.110596 145.711182,142.172485 
	C142.902863,146.368057 140.206696,151.102859 136.605682,155.001999 
	C132.520035,159.425903 127.220406,162.512405 126.011688,169.372849 
	C125.417435,172.745728 122.447380,175.700027 120.267120,178.523010 
	C119.656662,176.133743 119.331543,174.065262 119.112152,171.887299 
	C119.350014,171.463196 119.263680,171.210022 118.745674,170.739792 
	C117.675255,168.647629 116.818039,166.833954 115.979790,165.013260 
	C115.998756,165.006226 115.980072,165.041367 116.019150,164.700882 
	C117.032745,162.910812 118.007256,161.461227 119.178391,159.865906 
	C119.624237,159.503555 119.827911,159.250275 119.980858,158.719528 
	C119.975693,158.478699 119.977768,157.996948 120.355446,157.997665 
	C121.488441,157.998917 122.243767,157.999466 122.999084,158.000000 
M122.877068,168.596405 
	C122.856522,168.840912 122.835976,169.085434 122.815437,169.329956 
	C122.953926,169.333694 123.092415,169.337433 123.230904,169.341171 
	C123.221802,169.095688 123.212692,168.850204 122.877068,168.596405 
z"/>
<path fill="#FBA319" opacity="1.000000" stroke="none" 
	d="
M148.343567,140.930328 
	C148.783463,135.530151 153.924042,133.506790 156.909515,129.782608 
	C160.458649,125.355270 164.178360,121.062935 167.886932,116.766281 
	C168.955734,115.528008 170.240952,114.476532 171.715973,113.166946 
	C174.887527,112.944214 176.093796,114.471001 175.995056,117.614502 
	C170.384323,123.213348 164.902344,128.583145 159.099976,133.580978 
	C155.906769,136.331421 152.174652,138.456207 148.343567,140.930328 
z"/>
<path fill="#E4A12D" opacity="1.000000" stroke="none" 
	d="
M119.006424,171.996765 
	C119.331543,174.065262 119.656662,176.133743 119.983688,178.597992 
	C119.488541,179.240448 118.991463,179.487167 118.242935,179.851166 
	C116.921410,179.989166 115.851349,180.009872 113.983963,180.024841 
	C112.128288,180.015686 111.069923,180.012283 110.011566,180.008881 
	C108.020668,180.001343 106.024895,179.902115 104.040009,180.007675 
	C101.023010,180.168106 99.742584,178.794281 100.235390,175.142303 
	C102.750847,169.026993 102.676628,163.547638 100.901627,158.021271 
	C100.791527,157.342667 100.681435,156.664047 101.105453,156.110809 
	C108.936134,163.100708 101.095451,170.560516 102.138901,177.773438 
	C107.588646,177.773438 112.693146,177.773438 118.053856,177.773438 
	C117.326515,173.341629 116.643669,169.180969 115.960823,165.020294 
	C116.818039,166.833954 117.675255,168.647629 118.757401,170.984344 
	C118.982338,171.507416 119.006432,171.996765 119.006424,171.996765 
z"/>
<path fill="#FE8D0F" opacity="1.000000" stroke="none" 
	d="
M179.563660,182.849365 
	C179.909500,185.036392 179.921265,187.075089 179.691483,189.554108 
	C179.449936,189.994431 179.005493,190.000000 179.005493,190.000000 
	C177.674423,191.939896 176.343353,193.879807 175.624237,194.927841 
	C172.297974,196.557297 169.374512,197.487213 167.160614,199.289001 
	C166.077835,200.170197 166.333588,202.677475 165.950653,204.441635 
	C165.417419,206.898132 165.159561,209.500732 164.069931,211.684601 
	C163.822342,212.180862 160.647202,211.216461 158.819565,210.924377 
	C158.574142,210.329880 158.328705,209.735397 158.083282,209.140900 
	C155.614716,212.610397 153.219879,216.136749 150.622177,219.506683 
	C150.024139,220.282532 148.761215,220.857483 147.751068,220.951172 
	C142.825912,221.407944 137.882736,221.670166 132.484406,222.000916 
	C130.014511,215.590576 130.981232,214.145752 136.416138,209.574921 
	C143.324997,203.764465 149.678452,197.292389 156.251862,191.084915 
	C158.643478,188.826416 161.053223,186.579102 163.318497,184.197144 
	C165.440033,181.966339 167.225983,179.400116 169.452637,177.290833 
	C171.144958,175.687714 173.296860,174.569748 175.244278,173.235916 
	C176.159073,175.202698 177.113617,177.152298 177.973404,179.142838 
	C178.470993,180.294830 178.815933,181.512756 179.563660,182.849365 
z"/>
<path fill="#000000" opacity="1.000000" stroke="none" 
	d="
M136.957916,94.104935 
	C136.969696,94.508789 136.981461,94.912636 136.666016,95.673645 
	C135.871338,96.343422 135.403854,96.656036 134.936386,96.968651 
	C134.936386,96.968651 135.013657,96.976898 134.544373,96.985611 
	C117.697845,97.053162 101.320587,97.112007 84.747803,97.103546 
	C84.552277,97.036247 84.139809,97.006088 84.032669,96.742386 
	C83.615631,96.272865 83.305733,96.067039 82.979713,95.645523 
	C82.963593,95.429840 82.818909,95.022186 82.896347,94.556549 
	C83.578896,80.710579 84.184006,67.330238 84.789124,53.949894 
	C84.789124,53.949894 84.947136,53.527031 85.282295,53.188995 
	C85.778473,52.244545 85.939491,51.638126 86.408524,50.888329 
	C87.813553,48.853470 88.910561,46.961994 90.007576,45.070515 
	C90.007576,45.070515 90.036911,45.044937 90.295479,44.977581 
	C90.703293,44.626534 90.852539,44.342842 91.001785,44.059151 
	C91.001793,44.059155 91.041527,44.038113 91.291557,43.960735 
	C91.854065,43.691898 92.006836,43.412960 91.999916,43.046543 
	C91.999916,43.046543 92.025070,43.025558 92.347443,42.906109 
	C94.119995,41.541817 95.570175,40.296974 97.020355,39.052132 
	C97.020355,39.052132 97.013069,39.013901 97.392693,38.995167 
	C99.199562,38.330692 100.626808,37.684952 102.054054,37.039207 
	C102.054054,37.039204 102.539322,36.954777 103.115334,36.958801 
	C104.481483,36.662495 105.271622,36.362171 106.061760,36.061844 
	C106.061760,36.061848 106.537468,35.975601 107.192139,35.973503 
	C109.573586,35.916328 111.300354,35.861256 113.027122,35.806183 
	C113.027122,35.806183 113.468391,35.960289 113.852783,36.320679 
	C115.165512,36.719288 116.093842,36.757507 117.022179,36.795731 
	C117.022179,36.795731 117.471367,36.955585 117.843475,37.317997 
	C119.485855,38.052948 120.756126,38.425488 122.026390,38.798023 
	C122.026390,38.798023 122.473091,38.960087 122.830704,39.329693 
	C131.849426,45.379803 136.514740,53.069420 136.094894,63.758595 
	C135.757568,72.347107 135.979309,80.959801 136.064957,89.560646 
	C136.080063,91.078224 136.646225,92.590309 136.957916,94.104935 
z"/>
<path fill="#FCC22E" opacity="1.000000" stroke="none" 
	d="
M82.818909,95.022186 
	C82.818909,95.022186 82.963593,95.429840 83.112183,95.889595 
	C83.553787,96.568260 83.846802,96.787178 84.139809,97.006088 
	C84.139809,97.006088 84.552277,97.036247 85.087471,97.301407 
	C87.750778,97.727737 89.878883,97.888908 91.985458,98.409683 
	C89.838600,100.909523 87.824684,103.177216 85.559258,105.157135 
	C82.839737,107.533913 79.710167,109.460526 77.106728,111.947037 
	C72.105164,116.724007 67.141930,121.573112 62.539791,126.728813 
	C55.581749,134.523804 46.213539,140.366882 42.648323,150.990173 
	C42.358776,151.852951 40.959698,152.343353 40.076187,153.006775 
	C40.092926,145.334183 40.109669,137.661606 40.197914,129.527435 
	C40.847580,127.463509 41.474121,125.876579 41.991154,124.254745 
	C42.581573,122.402679 43.074520,120.519531 44.154182,118.263748 
	C46.769508,116.331055 48.852581,114.800415 50.909115,113.234917 
	C56.606018,108.898270 62.335758,104.602036 67.928413,100.134483 
	C68.655556,99.553619 68.653831,98.060333 68.989716,96.989685 
	C68.707825,95.245216 68.425941,93.500748 68.077728,91.384239 
	C74.666405,93.393364 76.603424,89.127563 77.514198,82.479637 
	C79.157120,86.517357 80.221397,89.132973 81.640808,92.199112 
	C82.270264,93.440491 82.544586,94.231339 82.818909,95.022186 
z"/>
<path fill="#F3C13A" opacity="1.000000" stroke="none" 
	d="
M137.195801,93.756180 
	C136.646225,92.590309 136.080063,91.078224 136.064957,89.560646 
	C135.979309,80.959801 135.757568,72.347107 136.094894,63.758595 
	C136.514740,53.069420 131.849426,45.379803 123.062790,39.380554 
	C127.068733,41.312096 131.200195,43.562382 135.657761,45.909286 
	C136.499481,46.610554 137.443237,47.199894 137.465485,47.822159 
	C137.730453,55.237503 137.858322,62.657753 138.034546,70.544861 
	C137.842529,78.477806 137.638107,85.942612 137.195801,93.756180 
z"/>
<path fill="#E7C04F" opacity="1.000000" stroke="none" 
	d="
M82.896347,94.556549 
	C82.544586,94.231339 82.270264,93.440491 81.971199,92.330170 
	C81.966805,81.346413 81.883217,70.679970 82.103867,60.019833 
	C82.143295,58.114769 83.442101,56.235775 84.474274,54.147320 
	C84.184006,67.330238 83.578896,80.710579 82.896347,94.556549 
z"/>
<path fill="#F3C13A" opacity="1.000000" stroke="none" 
	d="
M89.649376,45.072094 
	C88.910561,46.961994 87.813553,48.853470 86.134651,50.877563 
	C85.370178,51.008297 85.187599,51.006420 85.005028,51.004543 
	C86.433746,49.027588 87.862457,47.050629 89.649376,45.072094 
z"/>
<path fill="#F3C13A" opacity="1.000000" stroke="none" 
	d="
M139.801086,39.221737 
	C140.429855,39.958527 140.853348,40.891655 141.276825,41.824783 
	C140.231552,41.432980 139.186279,41.041168 138.080719,40.330681 
	C138.545563,39.814026 139.070679,39.616051 139.801086,39.221737 
z"/>
<path fill="#F3C13A" opacity="1.000000" stroke="none" 
	d="
M112.893776,35.500084 
	C111.300354,35.861256 109.573586,35.916328 107.420929,35.895447 
	C108.916840,35.610989 110.838631,35.402489 112.893776,35.500084 
z"/>
<path fill="#F3C13A" opacity="1.000000" stroke="none" 
	d="
M96.648361,39.050781 
	C95.570175,40.296974 94.119995,41.541817 92.357986,42.893570 
	C93.456230,41.683464 94.866295,40.366444 96.648361,39.050781 
z"/>
<path fill="#F3C13A" opacity="1.000000" stroke="none" 
	d="
M101.741776,37.009651 
	C100.626808,37.684952 99.199562,38.330692 97.411209,39.001225 
	C97.125320,35.380276 99.338074,36.310036 101.741776,37.009651 
z"/>
<path fill="#F3C13A" opacity="1.000000" stroke="none" 
	d="
M121.887085,38.484482 
	C120.756126,38.425488 119.485855,38.052948 118.077690,37.362419 
	C119.209122,37.419933 120.478447,37.795441 121.887085,38.484482 
z"/>
<path fill="#F3C13A" opacity="1.000000" stroke="none" 
	d="
M116.933525,36.557594 
	C116.093842,36.757507 115.165512,36.719288 114.083115,36.360222 
	C114.901001,36.132732 115.872932,36.226097 116.933525,36.557594 
z"/>
<path fill="#F3C13A" opacity="1.000000" stroke="none" 
	d="
M105.738190,36.046738 
	C105.271622,36.362171 104.481483,36.662495 103.349373,36.882133 
	C103.809807,36.544838 104.612221,36.288235 105.738190,36.046738 
z"/>
<path fill="#E7C04F" opacity="1.000000" stroke="none" 
	d="
M85.000694,51.350452 
	C85.187599,51.006420 85.370178,51.008297 85.826630,51.020943 
	C85.939491,51.638126 85.778473,52.244545 85.318451,52.966202 
	C85.011757,52.619747 85.004059,52.158054 85.000694,51.350452 
z"/>
<path fill="#F3C13A" opacity="1.000000" stroke="none" 
	d="
M127.507156,38.509987 
	C127.486740,38.517818 127.527573,38.502151 127.507156,38.509987 
z"/>
<path fill="#F3C13A" opacity="1.000000" stroke="none" 
	d="
M91.805023,43.164040 
	C92.006836,43.412960 91.854065,43.691898 91.300240,43.939995 
	C91.183075,43.712353 91.366821,43.473988 91.805023,43.164040 
z"/>
<path fill="#F3C13A" opacity="1.000000" stroke="none" 
	d="
M90.806915,44.177551 
	C90.852539,44.342842 90.703293,44.626534 90.307861,44.962570 
	C90.185890,44.729908 90.369339,44.490250 90.806915,44.177551 
z"/>
<path fill="#FEB826" opacity="1.000000" stroke="none" 
	d="
M40.516693,182.009125 
	C40.121677,175.994507 40.111046,169.975571 40.488373,163.478729 
	C42.579670,162.140396 44.703815,161.669708 45.919334,160.357422 
	C55.118710,150.425613 64.072090,140.266281 73.247345,130.311707 
	C77.378754,125.829369 82.134460,121.902687 86.084579,117.277771 
	C91.703140,110.699409 98.135033,105.720749 106.528961,103.123337 
	C108.669456,102.460991 110.190674,99.797318 112.463303,98.038765 
	C117.952866,98.031387 122.975533,98.038414 127.998215,98.045441 
	C124.304451,101.231163 120.491783,104.290390 116.940872,107.628098 
	C108.726517,115.349274 100.503136,123.069427 92.530258,131.037018 
	C78.959862,144.598389 65.546051,158.317352 52.160320,172.061539 
	C50.447235,173.820496 49.612602,176.487106 47.798065,178.080978 
	C45.851833,179.790527 43.228775,180.729538 40.516693,182.009125 
z"/>
<path fill="#FDAF1F" opacity="1.000000" stroke="none" 
	d="
M154.657471,98.890350 
	C155.033691,98.970215 155.430267,99.057289 155.624817,99.112770 
	C155.871078,99.573563 155.922791,99.978867 155.809067,100.919647 
	C155.487976,102.525803 155.332321,103.596481 155.234390,104.270096 
	C153.055634,104.674698 150.903229,104.452187 149.682724,105.413193 
	C145.353287,108.822205 141.190826,112.480888 137.252319,116.338226 
	C133.281189,120.227509 129.800064,124.616776 125.832863,128.510483 
	C121.555801,132.708313 116.105034,135.997910 115.723274,142.860611 
	C113.950798,142.806671 112.452904,142.880661 110.639992,142.949982 
	C109.905800,142.954361 109.486641,142.963394 109.052444,142.713562 
	C109.020065,142.282669 109.002716,142.110672 108.985367,141.938660 
	C108.398743,138.314255 107.692413,134.701233 107.345955,131.054016 
	C107.289673,130.461578 108.759056,129.603210 109.645500,129.071609 
	C110.864471,128.340607 112.664337,128.147018 113.414566,127.131554 
	C122.082092,115.399864 134.116928,107.537689 145.412170,98.804092 
	C146.365601,98.066910 146.360352,96.191429 147.044861,94.983238 
	C148.363983,92.654930 149.857956,90.425713 151.621033,88.081238 
	C152.857132,91.582108 149.996017,95.963165 154.657471,98.890350 
z"/>
<path fill="#FDB121" opacity="1.000000" stroke="none" 
	d="
M97.000801,148.999573 
	C94.979195,150.854401 92.910965,152.661240 90.943672,154.571991 
	C79.451714,165.733612 67.958405,176.894150 56.539368,188.130096 
	C55.143642,189.503433 54.411621,191.572647 52.968304,192.870346 
	C51.491390,194.198273 49.517769,194.973755 47.381084,195.994919 
	C45.331821,190.956970 47.013996,187.643860 51.104042,184.047775 
	C57.343605,178.561783 62.432045,171.787125 68.246651,165.789795 
	C71.967514,161.952026 76.186760,158.602676 80.052338,154.898468 
	C83.808182,151.299408 87.786522,147.825134 90.928741,143.729538 
	C93.155190,140.827560 94.827614,140.592957 97.876740,143.053421 
	C97.906013,144.975784 97.456055,146.490952 97.004807,148.254425 
	C97.003517,148.502762 97.000801,148.999573 97.000801,148.999573 
z"/>
<path fill="#FBAE21" opacity="1.000000" stroke="none" 
	d="
M97.006104,148.006104 
	C97.456055,146.490952 97.906013,144.975784 98.177750,143.230499 
	C98.154495,142.365845 98.170593,141.648392 98.490639,141.112473 
	C99.424583,139.548645 100.479927,138.057297 101.487686,136.537552 
	C102.616859,137.804886 103.746025,139.072220 104.778854,140.955444 
	C104.119865,142.709213 103.557213,143.847092 102.991547,145.244080 
	C102.994484,145.675339 103.000435,145.847488 102.909164,146.288498 
	C102.462967,147.003769 102.113998,147.450195 101.475182,147.914673 
	C100.799507,147.963486 100.413673,147.994263 99.649757,148.018433 
	C98.516479,148.009903 97.761292,148.007996 97.006104,148.006104 
z"/>
<path fill="#E7C04F" opacity="1.000000" stroke="none" 
	d="
M128.414307,98.028030 
	C122.975533,98.038414 117.952866,98.031387 111.995773,98.019379 
	C104.709900,98.026291 98.358444,98.038185 92.006996,98.050087 
	C89.878883,97.888908 87.750778,97.727737 85.282997,97.368706 
	C101.320587,97.112007 117.697845,97.053162 134.546371,96.946808 
	C132.955231,97.269737 130.892807,97.640182 128.414307,98.028030 
z"/>
<path fill="#F1AC25" opacity="1.000000" stroke="none" 
	d="
M102.994568,144.984970 
	C103.557213,143.847092 104.119865,142.709213 104.846077,141.294037 
	C106.105125,141.324722 107.200615,141.632736 108.640732,141.939697 
	C109.002716,142.110672 109.020065,142.282669 108.895897,143.040802 
	C107.191299,144.093704 105.628212,144.560501 103.797638,145.012787 
	C103.351624,144.993820 103.173096,144.989395 102.994568,144.984970 
z"/>
<path fill="#FDAF1F" opacity="1.000000" stroke="none" 
	d="
M151.738525,82.067871 
	C151.991638,82.445488 151.991913,82.888519 151.989471,83.663734 
	C151.819717,83.375038 151.652695,82.754158 151.738525,82.067871 
z"/>
<path fill="#F3C13A" opacity="1.000000" stroke="none" 
	d="
M135.273102,96.970078 
	C135.403854,96.656036 135.871338,96.343422 136.648438,95.976273 
	C137.135712,95.936096 137.313354,95.950455 137.757919,95.984123 
	C137.219818,96.326126 136.414825,96.648819 135.273102,96.970078 
z"/>
<path fill="#FEAA1C" opacity="1.000000" stroke="none" 
	d="
M100.546036,158.097992 
	C102.676628,163.547638 102.750847,169.026993 100.232285,174.724976 
	C97.816216,176.056503 95.155212,176.629333 93.499062,178.237213 
	C87.825867,183.745026 83.022980,190.256119 76.922310,195.190384 
	C68.857559,201.713135 63.795902,211.631317 53.300369,215.823120 
	C52.358768,215.862259 51.432339,215.952225 51.116405,215.555710 
	C48.302460,212.024368 48.025841,205.479919 51.144375,201.941971 
	C56.393829,195.986511 62.017406,190.354141 67.599861,184.700638 
	C74.311455,177.903625 81.030510,171.105042 87.993965,164.571030 
	C90.110901,162.584641 93.005440,161.393433 95.625084,159.989670 
	C97.059242,159.221146 98.663109,158.769333 100.546036,158.097992 
z"/>
<path fill="#FD9D14" opacity="1.000000" stroke="none" 
	d="
M110.080338,180.343109 
	C111.069923,180.012283 112.128288,180.015686 113.582642,180.037903 
	C113.477715,180.930252 112.976784,181.803772 112.475861,182.677307 
	C111.700279,182.010651 110.924698,181.343994 110.080338,180.343109 
z"/>
<path fill="#000000" opacity="1.000000" stroke="none" 
	d="
M104.065125,145.027313 
	C105.628212,144.560501 107.191299,144.093704 108.910927,143.299683 
	C109.486641,142.963394 109.905800,142.954361 110.804459,143.268890 
	C112.830925,144.071732 114.377892,144.551010 116.013405,145.279434 
	C116.399193,145.695190 116.696449,145.861801 117.065773,146.265350 
	C117.328659,146.804611 117.602058,146.972107 117.986984,147.318787 
	C118.332787,148.111969 118.649673,148.591156 119.001495,149.383820 
	C119.108231,150.110153 119.180031,150.523026 119.168053,151.344025 
	C118.196411,154.222244 117.116600,156.644424 116.484085,159.178253 
	C116.014992,161.057465 116.126938,163.081726 115.980072,165.041367 
	C115.980072,165.041367 115.998756,165.006226 115.979790,165.013260 
	C116.643669,169.180969 117.326515,173.341629 118.053856,177.773438 
	C112.693146,177.773438 107.588646,177.773438 102.138901,177.773438 
	C101.095451,170.560516 108.936134,163.100708 101.314438,156.064255 
	C100.957802,155.474152 100.926292,155.055939 100.916389,153.941498 
	C101.213676,151.462372 101.489357,149.679504 101.765030,147.896622 
	C102.113998,147.450195 102.462967,147.003769 103.165756,146.226654 
	C103.701424,145.606400 103.883278,145.316849 104.065125,145.027313 
z"/>
<path fill="#E4A12D" opacity="1.000000" stroke="none" 
	d="
M101.475182,147.914673 
	C101.489357,149.679504 101.213676,151.462372 100.846298,153.633972 
	C100.492172,152.923386 100.229752,151.824112 99.979584,150.042053 
	C100.003845,148.914551 100.015846,148.469803 100.027847,148.025055 
	C100.413673,147.994263 100.799507,147.963486 101.475182,147.914673 
z"/>
<path fill="#F1AC25" opacity="1.000000" stroke="none" 
	d="
M99.649757,148.018433 
	C100.015846,148.469803 100.003845,148.914551 99.978073,149.693512 
	C99.063919,149.835953 98.163528,149.644180 97.131973,149.225983 
	C97.000801,148.999573 97.003517,148.502762 97.004807,148.254425 
	C97.761292,148.007996 98.516479,148.009903 99.649757,148.018433 
z"/>
<path fill="#FD9414" opacity="1.000000" stroke="none" 
	d="
M179.130814,190.183365 
	C179.005493,190.000000 179.449936,189.994431 179.671112,189.990082 
	C179.892288,189.985718 179.928604,190.467346 179.923218,190.707977 
	C179.663040,190.793564 179.442474,190.599609 179.130814,190.183365 
z"/>
<path fill="#FBC935" opacity="1.000000" stroke="none" 
	d="
M68.624451,96.996857 
	C68.653831,98.060333 68.655556,99.553619 67.928413,100.134483 
	C62.335758,104.602036 56.606018,108.898270 50.909115,113.234917 
	C48.852581,114.800415 46.769508,116.331055 44.349270,117.940323 
	C43.878269,114.083420 45.386688,111.606941 49.040157,109.457214 
	C52.489101,107.427826 54.967243,103.748543 58.018257,100.497543 
	C60.365868,99.712234 62.567638,99.224388 64.915573,98.393051 
	C65.332161,97.896957 65.571281,97.705284 65.923645,97.295609 
	C66.798523,97.079109 67.528854,97.041573 68.624451,96.996857 
z"/>
<path fill="#FEBC2A" opacity="1.000000" stroke="none" 
	d="
M91.985458,98.409683 
	C98.358444,98.038185 104.709900,98.026291 111.528885,98.033783 
	C110.190674,99.797318 108.669456,102.460991 106.528961,103.123337 
	C98.135033,105.720749 91.703140,110.699409 86.084579,117.277771 
	C82.134460,121.902687 77.378754,125.829369 73.247345,130.311707 
	C64.072090,140.266281 55.118710,150.425613 45.919334,160.357422 
	C44.703815,161.669708 42.579670,162.140396 40.511597,163.012589 
	C40.113190,159.987686 40.079521,156.951035 40.061020,153.460587 
	C40.959698,152.343353 42.358776,151.852951 42.648323,150.990173 
	C46.213539,140.366882 55.581749,134.523804 62.539791,126.728813 
	C67.141930,121.573112 72.105164,116.724007 77.106728,111.947037 
	C79.710167,109.460526 82.839737,107.533913 85.559258,105.157135 
	C87.824684,103.177216 89.838600,100.909523 91.985458,98.409683 
z"/>
<path fill="#FDA91D" opacity="1.000000" stroke="none" 
	d="
M117.958069,147.004791 
	C117.602058,146.972107 117.328659,146.804611 117.077332,146.009567 
	C117.020599,145.346329 117.024391,145.175827 117.182190,144.805573 
	C116.890083,144.066742 116.443970,143.527649 115.997864,142.988556 
	C116.105034,135.997910 121.555801,132.708313 125.832863,128.510483 
	C129.800064,124.616776 133.281189,120.227509 137.252319,116.338226 
	C141.190826,112.480888 145.353287,108.822205 149.682724,105.413193 
	C150.903229,104.452187 153.055634,104.674698 155.234390,104.270096 
	C155.332321,103.596481 155.487976,102.525803 155.823318,101.226585 
	C157.746521,100.730782 159.490036,100.463516 161.527527,100.209328 
	C163.911835,101.507828 166.002151,102.793251 168.457840,104.136124 
	C168.823196,104.193573 168.925583,104.577065 168.960693,104.772118 
	C155.276901,110.508255 146.971848,122.605934 136.470566,132.015320 
	C131.902588,136.108353 127.969131,140.944672 124.033432,145.681000 
	C123.161758,146.730011 123.497971,148.782715 122.777145,150.686096 
	C121.552025,150.994965 120.827759,150.990982 119.891006,150.966965 
	C119.678528,150.946915 119.251831,150.935883 119.251831,150.935883 
	C119.180031,150.523026 119.108231,150.110153 119.165115,149.180206 
	C118.848549,148.110321 118.403305,147.557556 117.958069,147.004791 
z"/>
<path fill="#F9A21B" opacity="1.000000" stroke="none" 
	d="
M120.103493,150.987015 
	C120.827759,150.990982 121.552025,150.994965 122.638451,150.999481 
	C123.123451,153.149002 123.246300,155.298004 123.184113,157.723511 
	C122.243767,157.999466 121.488441,157.998917 120.355850,157.749908 
	C119.978577,157.501419 119.989281,157.005936 120.098740,156.900650 
	C120.361732,156.496216 120.300880,156.236023 120.072144,155.691376 
	C120.113602,153.907654 120.108551,152.447327 120.103493,150.987015 
z"/>
<path fill="#F9A21B" opacity="1.000000" stroke="none" 
	d="
M124.665253,159.003693 
	C125.100403,160.175827 125.202980,161.347382 125.305557,162.518936 
	C124.891838,162.613831 124.478119,162.708710 124.064407,162.803604 
	C123.713821,161.775345 123.363235,160.747101 123.007545,159.361557 
	C123.445854,159.003876 123.889275,159.003494 124.665253,159.003693 
z"/>
<path fill="#E4A12D" opacity="1.000000" stroke="none" 
	d="
M119.891006,150.966965 
	C120.108551,152.447327 120.113602,153.907654 120.059738,155.938919 
	C120.000816,156.509872 119.989281,157.005936 119.989281,157.005936 
	C119.989281,157.005936 119.978577,157.501419 119.978172,157.749176 
	C119.977768,157.996948 119.975693,158.478699 119.784821,158.866058 
	C119.344353,159.469406 119.140297,159.722153 118.981766,160.011642 
	C118.007256,161.461227 117.032745,162.910812 116.019150,164.700882 
	C116.126938,163.081726 116.014992,161.057465 116.484085,159.178253 
	C117.116600,156.644424 118.196411,154.222244 119.168053,151.344025 
	C119.251831,150.935883 119.678528,150.946915 119.891006,150.966965 
z"/>
<path fill="#F9A21B" opacity="1.000000" stroke="none" 
	d="
M123.040329,168.600555 
	C123.212692,168.850204 123.221802,169.095688 123.230904,169.341187 
	C123.092415,169.337433 122.953926,169.333694 122.815437,169.329956 
	C122.835976,169.085434 122.856522,168.840912 123.040329,168.600555 
z"/>
<path fill="#F9A21B" opacity="1.000000" stroke="none" 
	d="
M119.112152,171.887299 
	C119.006432,171.996765 118.982338,171.507416 118.970612,171.262848 
	C119.263680,171.210022 119.350014,171.463196 119.112152,171.887299 
z"/>
<path fill="#F9A21B" opacity="1.000000" stroke="none" 
	d="
M119.178391,159.865906 
	C119.140297,159.722153 119.344353,159.469406 119.789978,159.106888 
	C119.827911,159.250275 119.624237,159.503555 119.178391,159.865906 
z"/>
<path fill="#E7C04F" opacity="1.000000" stroke="none" 
	d="
M84.032669,96.742386 
	C83.846802,96.787178 83.553787,96.568260 83.128311,96.105286 
	C83.305733,96.067039 83.615631,96.272865 84.032669,96.742386 
z"/>
<path fill="#F1AC25" opacity="1.000000" stroke="none" 
	d="
M115.723274,142.860611 
	C116.443970,143.527649 116.890083,144.066742 116.905571,144.804840 
	C116.291588,145.012650 116.108223,145.021469 115.924866,145.030273 
	C114.377892,144.551010 112.830925,144.071732 111.119484,143.273560 
	C112.452904,142.880661 113.950798,142.806671 115.723274,142.860611 
z"/>
<path fill="#E4A12D" opacity="1.000000" stroke="none" 
	d="
M103.797646,145.012787 
	C103.883278,145.316849 103.701424,145.606400 103.262978,145.957794 
	C103.000435,145.847488 102.994484,145.675339 102.991554,145.244080 
	C103.173096,144.989395 103.351624,144.993820 103.797646,145.012787 
z"/>
<path fill="#E4A12D" opacity="1.000000" stroke="none" 
	d="
M117.986984,147.318787 
	C118.403305,147.557556 118.848549,148.110321 119.130173,148.866730 
	C118.649673,148.591156 118.332787,148.111969 117.986984,147.318787 
z"/>
<path fill="#E4A12D" opacity="1.000000" stroke="none" 
	d="
M116.013405,145.279434 
	C116.108223,145.021469 116.291588,145.012650 116.751572,145.004578 
	C117.024391,145.175827 117.020599,145.346329 117.005257,145.772614 
	C116.696449,145.861801 116.399193,145.695190 116.013405,145.279434 
z"/>
<path fill="#FBA319" opacity="1.000000" stroke="none" 
	d="
M120.098740,156.900650 
	C119.989281,157.005936 120.000816,156.509872 120.013229,156.262329 
	C120.300880,156.236023 120.361732,156.496216 120.098740,156.900650 
z"/>
</svg>