<svg id="Calque_2" data-name="Calque 2" xmlns="http://www.w3.org/2000/svg" viewBox="0 0 126.46 45.91"><defs><style>.cls-1{fill:#fff;}.cls-2{fill:#d73832;}</style></defs><path class="cls-1" d="M8.38,29c0,.57.13.74.64.86v.33H6.17v-.33c.51-.12.63-.31.63-.86V17.8H2.18c-.57,0-.73.12-.86.64H1V15.87h.33c.13.52.29.64.86.64H13c.57,0,.74-.12.86-.64h.33v2.57h-.33c-.12-.52-.29-.64-.86-.64H8.38Z"/><path class="cls-1" d="M25.64,28.9c0,.58.12.74.64.86v.33H23.42v-.33c.52-.12.64-.3.64-.86V17.58c0-.56-.12-.72-.64-.85v-.32h7.51c2.08,0,3.12.18,4,.73a3.54,3.54,0,0,1,1.58,3c0,2.09-1.48,3.49-3.88,3.7l3.47,5.39a1,1,0,0,0,.9.49v.33H33.83v-.33c.37,0,.49-.12.49-.26s0-.15-.35-.66l-3.1-4.9H25.64Zm5.54-6.26a5,5,0,0,0,2.73-.45,2.26,2.26,0,0,0,1-2,2.22,2.22,0,0,0-1.07-2A5.27,5.27,0,0,0,31,17.7h-5.4v4.94Z"/><path class="cls-1" d="M49,26.26l-1.19,2.6c-.15.31-.19.39-.19.51s.16.33.6.39v.33h-3v-.33c.53-.08.68-.24,1.19-1.29l5-10.81a1.25,1.25,0,0,0,.18-.54c0-.2-.12-.3-.49-.39v-.32h3.32v.32c-.37.11-.49.21-.49.41s0,.17.19.52L58.9,28.08c.67,1.5.69,1.52,1.43,1.68v.33H57.09v-.33c.39,0,.6-.18.6-.43a1.87,1.87,0,0,0-.23-.63l-1.11-2.44Zm3.65-8.07L49.62,25h6.14Z"/><path class="cls-1" d="M80.55,28.37c.64.82,1.15,1.21,1.63,1.23v.33H78.69V29.6c.31,0,.47-.16.47-.33s-.12-.37-.56-.9l-3.5-4.51-3.49,4.51c-.58.74-.58.74-.58.88s.15.27.5.35v.33H68.22V29.6c.51,0,.82-.27,1.64-1.23l4.35-5.64-3.4-4.37c-1.21-1.61-1.32-1.71-1.87-1.79v-.33h3.49v.33c-.37.1-.49.21-.49.43a1.61,1.61,0,0,0,.41.82l2.83,3.65L78,17.82a2.06,2.06,0,0,0,.47-.9c0-.21-.14-.31-.47-.35v-.33h3.24v.33c-.49.06-.86.39-2,1.79L76.06,22.6Z"/><path class="cls-1" d="M97.05,28.9c0,.58.12.74.64.86v.33H94.83v-.33c.52-.12.64-.3.64-.86V24l-4.41-5.79c-1.07-1.37-1.13-1.41-1.68-1.52v-.32h3.46v.32c-.36.09-.47.17-.47.37a1.85,1.85,0,0,0,.47,1l3.47,4.74,3.47-4.91c.37-.49.45-.67.45-.84s-.12-.26-.45-.35v-.32H103v.32c-.53.07-.74.25-1.76,1.52L97.05,24Z"/><path class="cls-1" d="M122.91,19.83l-.29-.14a2.5,2.5,0,0,0,.16-.56c0-.2-.24-.41-.73-.65a10.07,10.07,0,0,0-4.25-.95c-2.71,0-4.66,1.13-4.66,2.71a1.79,1.79,0,0,0,1.09,1.62c.74.33,1.45.43,3.67.5,3.06.1,4.06.24,4.93.72a3.22,3.22,0,0,1,1.7,2.89c0,2.65-2.46,4.37-6.26,4.37a11.18,11.18,0,0,1-6.12-1.66,2,2,0,0,0-.59-.23c-.12,0-.21.06-.47.37l-.27-.16,1.5-2.53.29.17a1.46,1.46,0,0,0-.19.53c0,.23.35.51,1.27,1A9.2,9.2,0,0,0,118.23,29C121,29,123,27.79,123,26.09a1.94,1.94,0,0,0-1.5-1.87c-.64-.22-.7-.22-3.92-.34-2.3-.09-3.41-.31-4.43-.89a3.06,3.06,0,0,1-1.54-2.69c0-2.5,2.54-4.14,6.38-4.14a11.62,11.62,0,0,1,5.21,1.21,1.64,1.64,0,0,0,.41.14c.13,0,.27-.1.5-.41l.28.15Z"/><path class="cls-2" d="M69.91,14.68S58.51-1.94,51.71.22c-4.54,1.44,1.76,11.65,1.76,11.65S49.69,5,52.47,3c1.36-1,5.37.8,8.9,3.62a54.49,54.49,0,0,1,7.84,8Z"/><path class="cls-2" d="M80.76,31.25S92.17,47.86,99,45.7c4.53-1.44-1.76-11.65-1.76-11.65s3.78,6.84,1,8.85c-1.36,1-5.37-.79-8.9-3.61a55,55,0,0,1-7.84-8Z"/></svg>